<svg id="Calque_1" data-name="Calque 1" xmlns="http://www.w3.org/2000/svg" viewBox="0 0 277.02 277.02"><defs><style>.cls-1{fill:#191f27;}.cls-2{fill:#fff;}</style></defs><rect class="cls-1" width="277.02" height="277.02" rx="42.1"/><path class="cls-2" d="M377.66,371.56q-10.47,0-16.33-3.95a22.13,22.13,0,0,1-8.42-10.46,37.77,37.77,0,0,1-2.55-13.91V253.19H333V234.31h17.85l4.08-37.5h17.86v37.5h25.26v18.88H372.81v86.74q0,6.38,2.3,9.56t8.67,3.19h14.29v14.8a25.8,25.8,0,0,1-6.12,2q-3.58.76-7.27,1.4A41,41,0,0,1,377.66,371.56Z" transform="translate(-293.5 -145.68)"/><line class="cls-2" x1="154.05" y1="107.54" x2="147.74" y2="107.54"/><polygon class="cls-2" points="237.51 222.83 210.72 222.83 175.51 171.03 174.24 171.03 139.03 222.83 113.52 222.83 161.74 154.21 129.05 107.54 103.59 107.54 103.59 88.57 142.74 88.57 142.74 88.64 142.86 88.64 175.51 136.6 176.79 136.6 209.44 88.64 234.95 88.64 189.03 153.43 237.51 222.83"/><line class="cls-2" x1="147.74" y1="122.1" x2="147.74" y2="107.54"/></svg>