<svg width="559" height="290" viewBox="0 0 559 290" fill="none" xmlns="http://www.w3.org/2000/svg">
<g clip-path="url(#clip0_2_5)">
<path d="M408.43 213.91C407.267 213.929 406.107 213.795 404.98 213.51C404.086 213.287 403.244 212.893 402.5 212.35C401.871 211.865 401.361 211.243 401.01 210.53C400.661 209.779 400.487 208.958 400.5 208.13V207.78C400.488 207.69 400.488 207.6 400.5 207.51H403.66C403.652 207.593 403.652 207.677 403.66 207.76V207.98C403.639 208.705 403.877 209.414 404.33 209.98C404.798 210.488 405.414 210.838 406.09 210.98C406.912 211.18 407.755 211.277 408.6 211.27C409.351 211.279 410.1 211.174 410.82 210.96C411.434 210.796 411.993 210.471 412.44 210.02C412.844 209.579 413.059 208.998 413.04 208.4C413.06 208.054 413.001 207.708 412.865 207.389C412.73 207.069 412.523 206.786 412.26 206.56C411.647 206.092 410.947 205.752 410.2 205.56L407.55 204.8C406.77 204.58 406 204.34 405.22 204.07C404.487 203.818 403.786 203.483 403.13 203.07C402.52 202.693 402.009 202.175 401.64 201.56C401.24 200.847 401.046 200.037 401.08 199.22C401.064 198.435 401.242 197.659 401.6 196.96C401.967 196.293 402.484 195.722 403.11 195.29C403.836 194.814 404.642 194.475 405.49 194.29C406.509 194.052 407.553 193.938 408.6 193.95C409.674 193.93 410.745 194.065 411.78 194.35C412.606 194.571 413.38 194.952 414.06 195.47C414.627 195.915 415.085 196.482 415.4 197.13C415.694 197.755 415.845 198.439 415.84 199.13V199.55C415.858 199.653 415.858 199.757 415.84 199.86H412.72V199.46C412.718 198.967 412.584 198.483 412.33 198.06C412.023 197.564 411.563 197.182 411.02 196.97C410.205 196.654 409.333 196.511 408.46 196.55C407.849 196.54 407.239 196.594 406.64 196.71C406.188 196.797 405.757 196.97 405.37 197.22C405.058 197.424 404.797 197.698 404.61 198.02C404.441 198.326 404.351 198.67 404.35 199.02C404.335 199.293 404.383 199.566 404.491 199.817C404.598 200.069 404.762 200.292 404.97 200.47C405.462 200.852 406.022 201.137 406.62 201.31L408.81 202.06L411.41 202.8C412.253 203.056 413.07 203.391 413.85 203.8C414.568 204.172 415.18 204.719 415.63 205.39C416.113 206.179 416.346 207.096 416.3 208.02C416.324 208.94 416.125 209.853 415.72 210.68C415.334 211.425 414.767 212.062 414.07 212.53C413.305 213.035 412.454 213.398 411.56 213.6C410.532 213.825 409.482 213.929 408.43 213.91Z" fill="#191F27"/>
<path d="M427.92 213.91C426.262 213.962 424.618 213.593 423.14 212.84C421.803 212.106 420.748 210.948 420.14 209.55C418.806 205.905 418.806 201.905 420.14 198.26C420.748 196.864 421.803 195.709 423.14 194.98C424.662 194.219 426.35 193.851 428.05 193.91C429.615 193.845 431.169 194.19 432.56 194.91C433.784 195.616 434.745 196.701 435.3 198C435.969 199.628 436.286 201.38 436.23 203.14V204.67H422.5C422.506 205.953 422.736 207.226 423.18 208.43C423.511 209.335 424.148 210.095 424.98 210.58C425.906 211.057 426.939 211.288 427.98 211.25C428.715 211.265 429.448 211.161 430.15 210.94C430.729 210.762 431.262 210.458 431.71 210.05C432.144 209.672 432.486 209.2 432.71 208.67C432.935 208.113 433.06 207.52 433.08 206.92H436.21C436.194 207.889 435.994 208.846 435.62 209.74C435.271 210.591 434.722 211.345 434.02 211.94C433.263 212.58 432.386 213.063 431.44 213.36C430.304 213.733 429.115 213.919 427.92 213.91ZM422.58 202.31H432.94C432.962 201.4 432.84 200.492 432.58 199.62C432.383 198.96 432.042 198.352 431.58 197.84C431.147 197.387 430.612 197.045 430.02 196.84C429.375 196.626 428.699 196.521 428.02 196.53C427.036 196.497 426.06 196.71 425.18 197.15C424.397 197.57 423.772 198.233 423.4 199.04C422.923 200.069 422.645 201.178 422.58 202.31Z" fill="#191F27"/>
<path d="M440.21 213.47V194.35H442.81L443.1 197.51H443.36C443.552 196.902 443.821 196.321 444.16 195.78C444.532 195.188 445.053 194.703 445.67 194.375C446.288 194.047 446.981 193.887 447.68 193.91C448.015 193.907 448.35 193.937 448.68 194C448.914 194.04 449.142 194.107 449.36 194.2V197.15H448.16C447.429 197.132 446.702 197.272 446.03 197.56C445.452 197.833 444.948 198.242 444.56 198.75C444.154 199.289 443.862 199.905 443.7 200.56C443.516 201.299 443.426 202.058 443.43 202.82V213.47H440.21Z" fill="#191F27"/>
<path d="M457.34 213.47L450.25 194.35H453.59L457.08 203.91C457.25 204.37 457.45 204.91 457.66 205.64L458.34 207.75C458.57 208.46 458.76 209.1 458.9 209.65H459.08C459.25 209.12 459.45 208.5 459.66 207.78C459.87 207.06 460.11 206.36 460.34 205.67C460.57 204.98 460.77 204.39 460.94 203.91L464.39 194.35H467.63L460.54 213.47H457.34Z" fill="#191F27"/>
<path d="M470.61 190.75V187.18H473.81V190.75H470.61ZM470.61 213.47V194.35H473.81V213.47H470.61Z" fill="#191F27"/>
<path d="M486.06 213.91C484.45 213.963 482.854 213.594 481.43 212.84C480.143 212.081 479.144 210.917 478.59 209.53C477.31 205.9 477.31 201.94 478.59 198.31C479.155 196.92 480.164 195.756 481.46 195C482.908 194.231 484.532 193.856 486.17 193.91C487.324 193.886 488.474 194.058 489.57 194.42C490.461 194.714 491.269 195.217 491.927 195.887C492.584 196.556 493.072 197.374 493.35 198.27C493.674 199.295 493.829 200.365 493.81 201.44H490.57C490.601 200.503 490.448 199.568 490.12 198.69C489.841 198.005 489.331 197.44 488.68 197.09C487.876 196.705 486.99 196.523 486.1 196.56C485.132 196.535 484.176 196.781 483.34 197.27C482.517 197.804 481.889 198.59 481.55 199.51C481.101 200.794 480.894 202.15 480.94 203.51V204.27C480.902 205.605 481.105 206.937 481.54 208.2C481.858 209.137 482.477 209.942 483.3 210.49C484.159 210.996 485.144 211.249 486.14 211.22C487.053 211.259 487.961 211.056 488.77 210.63C489.432 210.255 489.946 209.666 490.23 208.96C490.549 208.124 490.702 207.234 490.68 206.34H493.81C493.823 207.358 493.667 208.372 493.35 209.34C493.069 210.235 492.591 211.055 491.95 211.74C491.281 212.446 490.461 212.989 489.55 213.33C488.432 213.734 487.249 213.93 486.06 213.91Z" fill="#191F27"/>
<path d="M505.3 213.91C503.642 213.963 501.997 213.595 500.52 212.84C499.183 212.106 498.128 210.948 497.52 209.55C496.186 205.905 496.186 201.905 497.52 198.26C498.13 196.865 499.185 195.712 500.52 194.98C502.042 194.22 503.73 193.852 505.43 193.91C506.995 193.845 508.549 194.19 509.94 194.91C511.166 195.616 512.131 196.7 512.69 198C513.356 199.629 513.67 201.381 513.61 203.14V204.67H499.88C499.882 205.953 500.109 207.225 500.55 208.43C500.881 209.335 501.518 210.095 502.35 210.58C503.277 211.055 504.309 211.286 505.35 211.25C506.082 211.265 506.812 211.161 507.51 210.94C508.091 210.759 508.627 210.456 509.08 210.05C509.511 209.669 509.853 209.198 510.08 208.67C510.304 208.113 510.43 207.52 510.45 206.92H513.57C513.557 207.888 513.361 208.845 512.99 209.74C512.637 210.589 512.089 211.343 511.39 211.94C510.633 212.58 509.756 213.063 508.81 213.36C507.678 213.732 506.492 213.918 505.3 213.91ZM499.95 202.31H510.32C510.339 201.399 510.214 200.492 509.95 199.62C509.754 198.96 509.412 198.351 508.95 197.84C508.515 197.385 507.976 197.042 507.38 196.84C506.736 196.624 506.059 196.519 505.38 196.53C504.4 196.497 503.427 196.71 502.55 197.15C501.763 197.565 501.137 198.23 500.77 199.04C500.292 200.068 500.014 201.178 499.95 202.31Z" fill="#191F27"/>
<path d="M524.28 213.91C523.114 213.929 521.951 213.794 520.82 213.51C519.93 213.285 519.091 212.891 518.35 212.35C517.721 211.865 517.211 211.243 516.86 210.53C516.511 209.779 516.337 208.958 516.35 208.13V207.78C516.332 207.691 516.332 207.599 516.35 207.51H519.51C519.502 207.593 519.502 207.677 519.51 207.76V207.98C519.484 208.706 519.722 209.416 520.18 209.98C520.648 210.488 521.264 210.838 521.94 210.98C522.762 211.18 523.605 211.277 524.45 211.27C525.201 211.279 525.95 211.174 526.67 210.96C527.284 210.796 527.843 210.471 528.29 210.02C528.694 209.579 528.909 208.998 528.89 208.4C528.911 208.054 528.851 207.708 528.716 207.389C528.58 207.069 528.373 206.786 528.11 206.56C527.496 206.094 526.796 205.754 526.05 205.56L523.4 204.8C522.62 204.58 521.84 204.34 521.07 204.07C520.337 203.818 519.636 203.483 518.98 203.07C518.37 202.693 517.859 202.175 517.49 201.56C517.087 200.848 516.889 200.038 516.92 199.22C516.907 198.434 517.089 197.658 517.45 196.96C517.817 196.293 518.334 195.722 518.96 195.29C519.685 194.812 520.492 194.473 521.34 194.29C522.359 194.052 523.403 193.938 524.45 193.95C525.524 193.931 526.595 194.065 527.63 194.35C528.456 194.571 529.23 194.952 529.91 195.47C530.477 195.915 530.935 196.482 531.25 197.13C531.544 197.755 531.695 198.439 531.69 199.13V199.55C531.708 199.653 531.708 199.757 531.69 199.86H528.56V199.46C528.562 198.968 528.431 198.484 528.18 198.06C527.873 197.564 527.413 197.182 526.87 196.97C526.055 196.654 525.183 196.511 524.31 196.55C523.699 196.54 523.089 196.594 522.49 196.71C522.038 196.797 521.607 196.97 521.22 197.22C520.905 197.421 520.645 197.696 520.46 198.02C520.291 198.326 520.201 198.67 520.2 199.02C520.185 199.293 520.233 199.566 520.341 199.817C520.448 200.069 520.612 200.292 520.82 200.47C521.312 200.852 521.872 201.137 522.47 201.31L524.71 202.04L527.31 202.78C528.153 203.036 528.97 203.371 529.75 203.78C530.466 204.154 531.077 204.701 531.53 205.37C532.013 206.159 532.246 207.076 532.2 208C532.224 208.921 532.025 209.833 531.62 210.66C531.235 211.409 530.663 212.046 529.96 212.51C529.197 213.019 528.346 213.382 527.45 213.58C526.41 213.816 525.346 213.927 524.28 213.91Z" fill="#191F27"/>
<path d="M0 186.48V0H40L82.4 121C83.4867 124.26 84.62 127.84 85.8 131.74C86.98 135.64 88.0667 139.307 89.06 142.74C90.06 146.18 90.83 149.18 91.37 151.74H93.28C93.82 149.02 94.5433 145.893 95.45 142.36C96.3567 138.827 97.3567 135.16 98.45 131.36C99.5433 127.547 100.543 124.103 101.45 121.03L143.86 0.0299988H183.55V186.48H157.68V77.2C157.68 71.5933 157.77 65.4767 157.95 58.85C158.13 52.2233 158.31 46.1533 158.49 40.64C158.67 35.1133 158.76 31.17 158.76 28.81H156.59C156.043 31.17 155.137 34.48 153.87 38.74C152.6 43 151.29 47.43 149.93 52.06C148.57 56.69 147.34 60.8 146.26 64.42L102.49 186.48H80.2L36.43 64.42C35.34 61.35 34.21 57.76 33.03 53.69C31.85 49.62 30.68 45.4 29.5 41.05C28.32 36.7 27.19 32.62 26.1 28.81H24.2C24.38 32.81 24.5167 37.75 24.61 43.63C24.7033 49.51 24.7933 55.4 24.88 61.3C24.9667 67.1867 25.01 72.4867 25.01 77.2V186.48H0Z" fill="#191F27"/>
<path d="M236.26 189.75C230.946 189.741 225.652 189.1 220.49 187.84C215.281 186.593 210.319 184.48 205.81 181.59C201.184 178.584 197.435 174.41 194.94 169.49C192.22 164.33 190.86 157.853 190.86 150.06C190.86 140.267 193.217 132.2 197.93 125.86C202.643 119.52 209.213 114.587 217.64 111.06C226.073 107.52 236.073 105.073 247.64 103.72C260.187 102.321 272.805 101.653 285.43 101.72V85.36C285.544 80.6842 284.615 76.0418 282.71 71.77C280.89 67.9567 277.673 65.01 273.06 62.93C268.447 60.85 261.877 59.8067 253.35 59.8C245.19 59.8 238.71 60.8433 233.91 62.93C229.11 65.0167 225.757 67.6833 223.85 70.93C221.94 74.2312 220.955 77.9863 221 81.8V85.88H197.93C197.751 84.9844 197.66 84.0734 197.66 83.16V79.9C197.66 71.2 200.06 63.9067 204.86 58.02C209.66 52.1333 216.41 47.6933 225.11 44.7C233.81 41.7067 243.78 40.21 255.02 40.21C266.98 40.21 276.98 41.9333 285.02 45.38C293.06 48.8267 299.143 53.72 303.27 60.06C307.35 66.4 309.39 74.01 309.39 82.89V160.37C309.39 163.81 310.203 166.21 311.83 167.57C313.522 168.941 315.654 169.651 317.83 169.57H328.44V185.34C325.702 186.492 322.885 187.445 320.01 188.19C316.544 189.052 312.981 189.462 309.41 189.41C305.324 189.57 301.274 188.582 297.72 186.56C294.648 184.675 292.192 181.937 290.65 178.68C288.958 175.119 287.857 171.305 287.39 167.39H285.49C282.106 172.04 277.916 176.046 273.12 179.22C267.978 182.682 262.331 185.327 256.38 187.06C249.836 188.913 243.061 189.819 236.26 189.75ZM242.26 169.63C247.858 169.662 253.42 168.742 258.71 166.91C263.721 165.187 268.375 162.56 272.44 159.16C276.401 155.822 279.632 151.702 281.93 147.06C284.309 142.243 285.522 136.933 285.47 131.56V119.56C272.918 119.432 260.374 120.268 247.95 122.06C237.617 123.687 229.687 126.587 224.16 130.76C218.633 134.933 215.87 140.82 215.87 148.42C215.87 153.32 216.957 157.32 219.13 160.42C221.448 163.606 224.671 166.021 228.38 167.35C232.82 168.959 237.519 169.732 242.24 169.63H242.26Z" fill="#191F27"/>
<path d="M367.16 189.75C359.72 189.75 353.92 188.343 349.76 185.53C345.674 182.844 342.527 178.95 340.76 174.39C338.925 169.666 338.002 164.637 338.04 159.57V63.57H319.58V43.49H338.58L342.93 3.48999H361.93V43.49H388.84V63.61H361.99V156.06C361.99 160.587 362.807 163.983 364.44 166.25C366.073 168.517 369.153 169.65 373.68 169.65H388.9V185.42C386.828 186.417 384.637 187.147 382.38 187.59C379.84 188.13 377.257 188.63 374.63 189.09C372.163 189.52 369.664 189.741 367.16 189.75Z" fill="#191F27"/>
<path d="M531.63 186.49H503.08L465.57 131.3H464.21L426.69 186.49H399.51L450.89 113.37L416.06 63.64H388.93V43.43H430.64V43.5H430.77L465.57 94.61H466.93L501.72 43.5H528.91L479.97 112.54L531.63 186.49Z" fill="#FFD005"/>
</g>
<path d="M32.8295 265.443H27.5114C27.3068 264.307 26.9261 263.307 26.3693 262.443C25.8125 261.58 25.1307 260.847 24.3239 260.244C23.517 259.642 22.6136 259.187 21.6136 258.881C20.625 258.574 19.5739 258.42 18.4602 258.42C16.4489 258.42 14.6477 258.926 13.0568 259.938C11.4773 260.949 10.2273 262.432 9.30682 264.386C8.39773 266.341 7.94318 268.727 7.94318 271.545C7.94318 274.386 8.39773 276.784 9.30682 278.739C10.2273 280.693 11.483 282.17 13.0739 283.17C14.6648 284.17 16.4545 284.67 18.4432 284.67C19.5455 284.67 20.5909 284.523 21.5795 284.227C22.5795 283.92 23.483 283.472 24.2898 282.881C25.0966 282.29 25.7784 281.568 26.3352 280.716C26.9034 279.852 27.2955 278.864 27.5114 277.75L32.8295 277.767C32.5455 279.483 31.9943 281.062 31.1761 282.506C30.3693 283.938 29.3295 285.176 28.0568 286.222C26.7955 287.256 25.3523 288.057 23.7273 288.625C22.1023 289.193 20.3295 289.477 18.4091 289.477C15.3864 289.477 12.6932 288.761 10.3295 287.33C7.96591 285.886 6.10227 283.824 4.73864 281.142C3.38636 278.46 2.71023 275.261 2.71023 271.545C2.71023 267.818 3.39205 264.619 4.75568 261.949C6.11932 259.267 7.98295 257.21 10.3466 255.778C12.7102 254.335 15.3977 253.614 18.4091 253.614C20.2614 253.614 21.9886 253.881 23.5909 254.415C25.2045 254.937 26.6534 255.71 27.9375 256.733C29.2216 257.744 30.2841 258.983 31.125 260.449C31.9659 261.903 32.5341 263.568 32.8295 265.443ZM39.1321 289V254.091H44.3991V284.466H60.2173V289H39.1321ZM95.1903 271.545C95.1903 275.273 94.5085 278.477 93.1449 281.159C91.7813 283.83 89.9119 285.886 87.5369 287.33C85.1733 288.761 82.4858 289.477 79.4744 289.477C76.4517 289.477 73.7528 288.761 71.3778 287.33C69.0142 285.886 67.1506 283.824 65.7869 281.142C64.4233 278.46 63.7415 275.261 63.7415 271.545C63.7415 267.818 64.4233 264.619 65.7869 261.949C67.1506 259.267 69.0142 257.21 71.3778 255.778C73.7528 254.335 76.4517 253.614 79.4744 253.614C82.4858 253.614 85.1733 254.335 87.5369 255.778C89.9119 257.21 91.7813 259.267 93.1449 261.949C94.5085 264.619 95.1903 267.818 95.1903 271.545ZM89.9744 271.545C89.9744 268.705 89.5142 266.312 88.5938 264.369C87.6847 262.415 86.4347 260.938 84.8438 259.938C83.2642 258.926 81.4744 258.42 79.4744 258.42C77.4631 258.42 75.6676 258.926 74.0881 259.938C72.5085 260.938 71.2585 262.415 70.3381 264.369C69.429 266.312 68.9744 268.705 68.9744 271.545C68.9744 274.386 69.429 276.784 70.3381 278.739C71.2585 280.682 72.5085 282.159 74.0881 283.17C75.6676 284.17 77.4631 284.67 79.4744 284.67C81.4744 284.67 83.2642 284.17 84.8438 283.17C86.4347 282.159 87.6847 280.682 88.5938 278.739C89.5142 276.784 89.9744 274.386 89.9744 271.545ZM124.206 254.091H129.49V277.051C129.49 279.494 128.916 281.659 127.768 283.545C126.621 285.42 125.007 286.898 122.928 287.977C120.848 289.045 118.411 289.58 115.615 289.58C112.831 289.58 110.399 289.045 108.32 287.977C106.24 286.898 104.626 285.42 103.479 283.545C102.331 281.659 101.757 279.494 101.757 277.051V254.091H107.024V276.625C107.024 278.205 107.371 279.608 108.064 280.835C108.768 282.062 109.763 283.028 111.047 283.733C112.331 284.426 113.854 284.773 115.615 284.773C117.388 284.773 118.916 284.426 120.2 283.733C121.496 283.028 122.484 282.062 123.166 280.835C123.859 279.608 124.206 278.205 124.206 276.625V254.091ZM148.449 289H137.148V254.091H148.807C152.227 254.091 155.165 254.79 157.619 256.188C160.074 257.574 161.955 259.568 163.261 262.17C164.58 264.761 165.239 267.869 165.239 271.494C165.239 275.131 164.574 278.256 163.244 280.869C161.926 283.483 160.017 285.494 157.517 286.903C155.017 288.301 151.994 289 148.449 289ZM142.415 284.398H148.159C150.818 284.398 153.028 283.898 154.79 282.898C156.551 281.886 157.869 280.426 158.744 278.517C159.619 276.597 160.057 274.256 160.057 271.494C160.057 268.756 159.619 266.432 158.744 264.523C157.881 262.614 156.591 261.165 154.875 260.176C153.159 259.187 151.028 258.693 148.483 258.693H142.415V284.398ZM184.491 289V254.091H196.935C199.651 254.091 201.901 254.585 203.685 255.574C205.469 256.562 206.804 257.915 207.69 259.631C208.577 261.335 209.02 263.256 209.02 265.392C209.02 267.54 208.571 269.472 207.673 271.188C206.787 272.892 205.446 274.244 203.651 275.244C201.866 276.233 199.622 276.727 196.918 276.727H188.361V272.261H196.44C198.156 272.261 199.548 271.966 200.616 271.375C201.685 270.773 202.469 269.955 202.969 268.92C203.469 267.886 203.719 266.71 203.719 265.392C203.719 264.074 203.469 262.903 202.969 261.881C202.469 260.858 201.679 260.057 200.599 259.477C199.531 258.898 198.122 258.608 196.372 258.608H189.759V289H184.491ZM215.195 289V254.091H237.081V258.625H220.462V269.261H235.939V273.778H220.462V284.466H237.286V289H215.195ZM244.116 289V254.091H256.56C259.264 254.091 261.509 254.557 263.293 255.489C265.088 256.42 266.429 257.71 267.315 259.358C268.202 260.994 268.645 262.886 268.645 265.034C268.645 267.17 268.196 269.051 267.298 270.676C266.412 272.29 265.071 273.545 263.276 274.443C261.491 275.341 259.247 275.79 256.543 275.79H247.116V271.256H256.065C257.77 271.256 259.156 271.011 260.224 270.523C261.304 270.034 262.094 269.324 262.594 268.392C263.094 267.46 263.344 266.341 263.344 265.034C263.344 263.716 263.088 262.574 262.577 261.608C262.077 260.642 261.287 259.903 260.207 259.392C259.139 258.869 257.736 258.608 255.997 258.608H249.384V289H244.116ZM261.349 273.25L269.974 289H263.974L255.52 273.25H261.349ZM275.054 289V254.091H296.702V258.625H280.321V269.261H295.151V273.778H280.321V289H275.054ZM303.179 289V254.091H325.065V258.625H308.446V269.261H323.923V273.778H308.446V284.466H325.27V289H303.179ZM361.095 265.443H355.777C355.572 264.307 355.192 263.307 354.635 262.443C354.078 261.58 353.396 260.847 352.589 260.244C351.783 259.642 350.879 259.187 349.879 258.881C348.891 258.574 347.839 258.42 346.726 258.42C344.714 258.42 342.913 258.926 341.322 259.938C339.743 260.949 338.493 262.432 337.572 264.386C336.663 266.341 336.209 268.727 336.209 271.545C336.209 274.386 336.663 276.784 337.572 278.739C338.493 280.693 339.749 282.17 341.339 283.17C342.93 284.17 344.72 284.67 346.709 284.67C347.811 284.67 348.857 284.523 349.845 284.227C350.845 283.92 351.749 283.472 352.555 282.881C353.362 282.29 354.044 281.568 354.601 280.716C355.169 279.852 355.561 278.864 355.777 277.75L361.095 277.767C360.811 279.483 360.26 281.062 359.442 282.506C358.635 283.938 357.595 285.176 356.322 286.222C355.061 287.256 353.618 288.057 351.993 288.625C350.368 289.193 348.595 289.477 346.675 289.477C343.652 289.477 340.959 288.761 338.595 287.33C336.232 285.886 334.368 283.824 333.004 281.142C331.652 278.46 330.976 275.261 330.976 271.545C330.976 267.818 331.658 264.619 333.021 261.949C334.385 259.267 336.249 257.21 338.612 255.778C340.976 254.335 343.663 253.614 346.675 253.614C348.527 253.614 350.254 253.881 351.857 254.415C353.47 254.937 354.919 255.71 356.203 256.733C357.487 257.744 358.55 258.983 359.391 260.449C360.232 261.903 360.8 263.568 361.095 265.443ZM365.676 258.625V254.091H392.693V258.625H381.801V289H376.551V258.625H365.676ZM430.406 263.261C430.224 261.648 429.474 260.398 428.156 259.511C426.838 258.614 425.179 258.165 423.179 258.165C421.747 258.165 420.509 258.392 419.463 258.847C418.418 259.29 417.605 259.903 417.026 260.688C416.457 261.46 416.173 262.341 416.173 263.33C416.173 264.159 416.366 264.875 416.753 265.477C417.151 266.08 417.668 266.585 418.304 266.994C418.952 267.392 419.645 267.727 420.384 268C421.122 268.261 421.832 268.477 422.514 268.648L425.923 269.534C427.037 269.807 428.179 270.176 429.349 270.642C430.52 271.108 431.605 271.722 432.605 272.483C433.605 273.244 434.412 274.188 435.026 275.312C435.651 276.438 435.963 277.784 435.963 279.352C435.963 281.33 435.452 283.085 434.429 284.619C433.418 286.153 431.946 287.364 430.014 288.25C428.094 289.136 425.77 289.58 423.043 289.58C420.429 289.58 418.168 289.165 416.259 288.335C414.349 287.506 412.855 286.33 411.776 284.807C410.696 283.273 410.099 281.455 409.986 279.352H415.27C415.372 280.614 415.781 281.665 416.497 282.506C417.224 283.335 418.151 283.955 419.276 284.364C420.412 284.761 421.656 284.96 423.009 284.96C424.497 284.96 425.821 284.727 426.98 284.261C428.151 283.784 429.071 283.125 429.741 282.284C430.412 281.432 430.747 280.437 430.747 279.301C430.747 278.267 430.452 277.42 429.861 276.761C429.281 276.102 428.491 275.557 427.491 275.125C426.503 274.693 425.384 274.312 424.134 273.983L420.009 272.858C417.213 272.097 414.997 270.977 413.361 269.5C411.736 268.023 410.923 266.068 410.923 263.636C410.923 261.625 411.469 259.869 412.56 258.369C413.651 256.869 415.128 255.705 416.991 254.875C418.855 254.034 420.957 253.614 423.298 253.614C425.662 253.614 427.747 254.028 429.554 254.858C431.372 255.688 432.804 256.83 433.849 258.284C434.895 259.727 435.44 261.386 435.486 263.261H430.406ZM439.564 254.091H445.547L454.666 269.96H455.041L464.161 254.091H470.143L457.479 275.295V289H452.229V275.295L439.564 254.091ZM503.293 254.091V289H498.452L480.707 263.398H480.384V289H475.116V254.091H479.991L497.753 279.727H498.077V254.091H503.293ZM539.97 265.443H534.652C534.447 264.307 534.067 263.307 533.51 262.443C532.953 261.58 532.271 260.847 531.464 260.244C530.658 259.642 529.754 259.187 528.754 258.881C527.766 258.574 526.714 258.42 525.601 258.42C523.589 258.42 521.788 258.926 520.197 259.938C518.618 260.949 517.368 262.432 516.447 264.386C515.538 266.341 515.084 268.727 515.084 271.545C515.084 274.386 515.538 276.784 516.447 278.739C517.368 280.693 518.624 282.17 520.214 283.17C521.805 284.17 523.595 284.67 525.584 284.67C526.686 284.67 527.732 284.523 528.72 284.227C529.72 283.92 530.624 283.472 531.43 282.881C532.237 282.29 532.919 281.568 533.476 280.716C534.044 279.852 534.436 278.864 534.652 277.75L539.97 277.767C539.686 279.483 539.135 281.062 538.317 282.506C537.51 283.938 536.47 285.176 535.197 286.222C533.936 287.256 532.493 288.057 530.868 288.625C529.243 289.193 527.47 289.477 525.55 289.477C522.527 289.477 519.834 288.761 517.47 287.33C515.107 285.886 513.243 283.824 511.879 281.142C510.527 278.46 509.851 275.261 509.851 271.545C509.851 267.818 510.533 264.619 511.896 261.949C513.26 259.267 515.124 257.21 517.487 255.778C519.851 254.335 522.538 253.614 525.55 253.614C527.402 253.614 529.129 253.881 530.732 254.415C532.345 254.937 533.794 255.71 535.078 256.733C536.362 257.744 537.425 258.983 538.266 260.449C539.107 261.903 539.675 263.568 539.97 265.443Z" fill="#191B1F" fill-opacity="0.31"/>
<defs>
<clipPath id="clip0_2_5">
<rect width="532.17" height="213.91" fill="white"/>
</clipPath>
</defs>
</svg>
