<svg id="Calque_1" data-name="Calque 1" xmlns="http://www.w3.org/2000/svg" viewBox="0 0 532.17 213.91"><defs><style>.cls-1{fill:#191f27;}.cls-2{fill:none;}.cls-3{fill:#ffd005;}</style></defs><path class="cls-1" d="M549.62,384.85a13.19,13.19,0,0,1-3.45-.4,7.13,7.13,0,0,1-2.48-1.16,5.19,5.19,0,0,1-1.49-1.82,5.49,5.49,0,0,1-.51-2.4v-.35a1,1,0,0,1,0-.27h3.16a1.29,1.29,0,0,0,0,.25v.22a3.06,3.06,0,0,0,.67,2,3.32,3.32,0,0,0,1.76,1,10.24,10.24,0,0,0,2.51.29,7.49,7.49,0,0,0,2.22-.31,3.59,3.59,0,0,0,1.62-.94,2.29,2.29,0,0,0,.6-1.62,2.25,2.25,0,0,0-.78-1.84,5.74,5.74,0,0,0-2.06-1l-2.65-.76c-.78-.22-1.55-.46-2.33-.73a10.08,10.08,0,0,1-2.09-1,4.48,4.48,0,0,1-1.49-1.51,4.41,4.41,0,0,1-.56-2.34,4.74,4.74,0,0,1,.52-2.26,4.89,4.89,0,0,1,1.51-1.67,7.1,7.1,0,0,1,2.38-1,13.06,13.06,0,0,1,3.11-.34,11.18,11.18,0,0,1,3.18.4,6.57,6.57,0,0,1,2.28,1.12,4.75,4.75,0,0,1,1.34,1.66,4.62,4.62,0,0,1,.44,2v.42a.9.9,0,0,1,0,.31h-3.12v-.4a2.74,2.74,0,0,0-.39-1.4,2.69,2.69,0,0,0-1.31-1.09,6.31,6.31,0,0,0-2.56-.42,8.79,8.79,0,0,0-1.82.16,3.59,3.59,0,0,0-1.27.51,2.39,2.39,0,0,0-.76.8,2.08,2.08,0,0,0-.26,1,1.78,1.78,0,0,0,.62,1.45,4.9,4.9,0,0,0,1.65.84L550,373l2.6.74a14.09,14.09,0,0,1,2.44,1,4.8,4.8,0,0,1,1.78,1.59,4.6,4.6,0,0,1,.67,2.63,5.7,5.7,0,0,1-.58,2.66,5,5,0,0,1-1.65,1.85,7.59,7.59,0,0,1-2.51,1.07A13.5,13.5,0,0,1,549.62,384.85Z" transform="translate(-141.19 -170.94)"/><path class="cls-1" d="M569.11,384.85a9.85,9.85,0,0,1-4.78-1.07,6.89,6.89,0,0,1-3-3.29,16.43,16.43,0,0,1,0-11.29,6.85,6.85,0,0,1,3-3.28,10.19,10.19,0,0,1,4.91-1.07,9,9,0,0,1,4.51,1,6.53,6.53,0,0,1,2.74,3.09,12.47,12.47,0,0,1,.93,5.14v1.53H563.69a11,11,0,0,0,.68,3.76,4.13,4.13,0,0,0,1.8,2.15,6.07,6.07,0,0,0,3,.67,6.76,6.76,0,0,0,2.17-.31,4.12,4.12,0,0,0,1.56-.89,3.78,3.78,0,0,0,1-1.38,5.15,5.15,0,0,0,.37-1.75h3.13a7.63,7.63,0,0,1-.59,2.82,5.74,5.74,0,0,1-1.6,2.2,7.46,7.46,0,0,1-2.58,1.42A11,11,0,0,1,569.11,384.85Zm-5.34-11.6h10.36a8.67,8.67,0,0,0-.36-2.69,4.63,4.63,0,0,0-1-1.78,3.94,3.94,0,0,0-1.56-1,6.08,6.08,0,0,0-2-.31,5.9,5.9,0,0,0-2.84.62,4.09,4.09,0,0,0-1.78,1.89A9,9,0,0,0,563.77,373.25Z" transform="translate(-141.19 -170.94)"/><path class="cls-1" d="M581.4,384.41V365.29H584l.29,3.16h.26a7.54,7.54,0,0,1,.8-1.73,4,4,0,0,1,3.52-1.87,5.09,5.09,0,0,1,1,.09,3,3,0,0,1,.68.2v2.95h-1.2a5.09,5.09,0,0,0-2.13.41,4,4,0,0,0-1.47,1.19,5,5,0,0,0-.86,1.81,9.15,9.15,0,0,0-.27,2.26v10.65Z" transform="translate(-141.19 -170.94)"/><path class="cls-1" d="M598.53,384.41l-7.09-19.12h3.34l3.49,9.56c.17.46.37,1,.58,1.73l.68,2.11c.23.71.42,1.35.56,1.9h.18c.17-.53.37-1.15.58-1.87s.45-1.42.68-2.11.43-1.28.6-1.76l3.45-9.56h3.24l-7.09,19.12Z" transform="translate(-141.19 -170.94)"/><path class="cls-1" d="M611.8,361.69v-3.57H615v3.57Zm0,22.72V365.29H615v19.12Z" transform="translate(-141.19 -170.94)"/><path class="cls-1" d="M627.25,384.85a9.24,9.24,0,0,1-4.63-1.07,6.75,6.75,0,0,1-2.84-3.31,16.87,16.87,0,0,1,0-11.22,6.79,6.79,0,0,1,2.87-3.31,9.38,9.38,0,0,1,4.71-1.09,10.18,10.18,0,0,1,3.4.51,5.89,5.89,0,0,1,3.78,3.85,9.94,9.94,0,0,1,.46,3.17h-3.24a7.18,7.18,0,0,0-.45-2.75,3.18,3.18,0,0,0-1.44-1.6,5.44,5.44,0,0,0-2.58-.53,5.2,5.2,0,0,0-2.76.71,4.54,4.54,0,0,0-1.79,2.24,11,11,0,0,0-.61,4v.76a11.09,11.09,0,0,0,.6,3.93,4.48,4.48,0,0,0,1.76,2.29,5.3,5.3,0,0,0,2.84.73,5.17,5.17,0,0,0,2.63-.59,3.36,3.36,0,0,0,1.46-1.67,6.87,6.87,0,0,0,.45-2.62H635a9.26,9.26,0,0,1-.46,3,6.26,6.26,0,0,1-1.4,2.4,6.39,6.39,0,0,1-2.4,1.59A9.78,9.78,0,0,1,627.25,384.85Z" transform="translate(-141.19 -170.94)"/><path class="cls-1" d="M646.49,384.85a9.82,9.82,0,0,1-4.78-1.07,6.89,6.89,0,0,1-3-3.29,16.43,16.43,0,0,1,0-11.29,6.89,6.89,0,0,1,3-3.28,10.22,10.22,0,0,1,4.91-1.07,9,9,0,0,1,4.51,1,6.55,6.55,0,0,1,2.75,3.09,12.47,12.47,0,0,1,.92,5.14v1.53H641.07a11,11,0,0,0,.67,3.76,4.13,4.13,0,0,0,1.8,2.15,6.11,6.11,0,0,0,3,.67,6.7,6.7,0,0,0,2.16-.31,4.24,4.24,0,0,0,1.57-.89,3.9,3.9,0,0,0,1-1.38,5.15,5.15,0,0,0,.37-1.75h3.12a7.63,7.63,0,0,1-.58,2.82,5.84,5.84,0,0,1-1.6,2.2,7.46,7.46,0,0,1-2.58,1.42A11,11,0,0,1,646.49,384.85Zm-5.35-11.6h10.37a8.64,8.64,0,0,0-.37-2.69,4.62,4.62,0,0,0-1-1.78,3.91,3.91,0,0,0-1.57-1,6,6,0,0,0-2-.31,5.86,5.86,0,0,0-2.83.62,4,4,0,0,0-1.78,1.89A8.94,8.94,0,0,0,641.14,373.25Z" transform="translate(-141.19 -170.94)"/><path class="cls-1" d="M665.47,384.85a13.32,13.32,0,0,1-3.46-.4,7.17,7.17,0,0,1-2.47-1.16,5.19,5.19,0,0,1-1.49-1.82,5.49,5.49,0,0,1-.51-2.4v-.35a.7.7,0,0,1,0-.27h3.16a1.29,1.29,0,0,0,0,.25v.22a3,3,0,0,0,.67,2,3.32,3.32,0,0,0,1.76,1,10.24,10.24,0,0,0,2.51.29,7.49,7.49,0,0,0,2.22-.31,3.59,3.59,0,0,0,1.62-.94,2.29,2.29,0,0,0,.6-1.62,2.25,2.25,0,0,0-.78-1.84,5.82,5.82,0,0,0-2.06-1l-2.65-.76c-.78-.22-1.56-.46-2.33-.73a10.08,10.08,0,0,1-2.09-1,4.48,4.48,0,0,1-1.49-1.51,4.41,4.41,0,0,1-.57-2.34,4.74,4.74,0,0,1,.53-2.26,4.89,4.89,0,0,1,1.51-1.67,7,7,0,0,1,2.38-1,13,13,0,0,1,3.11-.34,11.23,11.23,0,0,1,3.18.4,6.57,6.57,0,0,1,2.28,1.12,4.75,4.75,0,0,1,1.34,1.66,4.62,4.62,0,0,1,.44,2v.42a.9.9,0,0,1,0,.31h-3.13v-.4a2.73,2.73,0,0,0-.38-1.4,2.69,2.69,0,0,0-1.31-1.09,6.31,6.31,0,0,0-2.56-.42,8.79,8.79,0,0,0-1.82.16,3.59,3.59,0,0,0-1.27.51,2.3,2.3,0,0,0-.76.8,2.08,2.08,0,0,0-.26,1,1.78,1.78,0,0,0,.62,1.45,4.9,4.9,0,0,0,1.65.84l2.24.73,2.6.74a14.09,14.09,0,0,1,2.44,1,4.88,4.88,0,0,1,1.78,1.59,4.6,4.6,0,0,1,.67,2.63,5.7,5.7,0,0,1-.58,2.66,4.91,4.91,0,0,1-1.66,1.85,7.41,7.41,0,0,1-2.51,1.07A13.36,13.36,0,0,1,665.47,384.85Z" transform="translate(-141.19 -170.94)"/><path class="cls-1" d="M141.19,357.42V170.94h40l42.4,121q1.63,4.89,3.4,10.74t3.26,11q1.5,5.16,2.31,9h1.91q.81-4.08,2.17-9.38t3-11q1.64-5.72,3-10.33l42.41-121h39.69V357.42H298.87V248.14q0-8.41.27-18.35t.54-18.21q.27-8.29.27-11.83h-2.17q-.82,3.54-2.72,9.93c-1.27,4.26-2.58,8.69-3.94,13.32s-2.59,8.74-3.67,12.36L243.68,357.42H221.39L177.62,235.36c-1.09-3.07-2.22-6.66-3.4-10.73s-2.35-8.29-3.53-12.64-2.31-8.43-3.4-12.24h-1.9q.27,6,.41,14.82t.27,17.67q.13,8.83.13,15.9V357.42Z" transform="translate(-141.19 -170.94)"/><path class="cls-1" d="M377.45,360.69a67,67,0,0,1-15.77-1.91A47.85,47.85,0,0,1,347,352.53a31.32,31.32,0,0,1-10.87-12.1q-4.08-7.74-4.08-19.43,0-14.69,7.07-24.2T358.83,282q12.65-5.31,30-7.34a325.37,325.37,0,0,1,37.79-2V256.3a31.49,31.49,0,0,0-2.72-13.59q-2.73-5.72-9.65-8.84t-19.71-3.13q-12.24,0-19.44,3.13t-10.06,8a21.21,21.21,0,0,0-2.85,10.87v4.08H339.12a13.86,13.86,0,0,1-.27-2.72v-3.26q0-13.05,7.2-21.88t20.25-13.32q13.05-4.49,29.91-4.49,17.94,0,30,5.17T444.46,231q6.12,9.51,6.12,22.83v77.48q0,5.16,2.44,7.2a9,9,0,0,0,6,2h10.61v15.77a61.57,61.57,0,0,1-8.43,2.85,41.4,41.4,0,0,1-10.6,1.22,21.91,21.91,0,0,1-11.69-2.85,18.56,18.56,0,0,1-7.07-7.88,36.32,36.32,0,0,1-3.26-11.29h-1.9a48.19,48.19,0,0,1-12.37,11.83A60,60,0,0,1,397.57,358,71.18,71.18,0,0,1,377.45,360.69Zm6-20.12a49.41,49.41,0,0,0,16.45-2.72,43.4,43.4,0,0,0,13.73-7.75A37.7,37.7,0,0,0,423.12,318a34.25,34.25,0,0,0,3.54-15.5v-12A245.24,245.24,0,0,0,389.14,293q-15.5,2.44-23.79,8.7t-8.29,17.66q0,7.35,3.26,12a19.63,19.63,0,0,0,9.25,6.93A38.27,38.27,0,0,0,383.43,340.57Z" transform="translate(-141.19 -170.94)"/><path class="cls-1" d="M508.35,360.69q-11.16,0-17.4-4.22a23.49,23.49,0,0,1-9-11.14,40.1,40.1,0,0,1-2.72-14.82v-96H460.77V214.43h19l4.35-40h19v40h26.91v20.12H503.18V327q0,6.79,2.45,10.19t9.24,3.4h15.22v15.77a27.07,27.07,0,0,1-6.52,2.17q-3.81.81-7.75,1.5A44.4,44.4,0,0,1,508.35,360.69Z" transform="translate(-141.19 -170.94)"/><line class="cls-2" x1="444.53" y1="63.64" x2="437.8" y2="63.64"/><polygon class="cls-3" points="531.63 186.49 503.08 186.49 465.57 131.3 464.21 131.3 426.69 186.49 399.51 186.49 450.89 113.37 416.06 63.64 388.93 63.64 388.93 43.43 430.64 43.43 430.64 43.5 430.77 43.5 465.57 94.61 466.93 94.61 501.72 43.5 528.91 43.5 479.97 112.54 531.63 186.49"/><line class="cls-2" x1="437.8" y1="79.16" x2="437.8" y2="63.64"/></svg>